<svg version="1.1" xmlns="http://www.w3.org/2000/svg" xmlns:xlink="http://www.w3.org/1999/xlink" width="206.5" height="321.84479" viewBox="0,0,206.5,321.84479"><g transform="translate(-176.25,46.58334)"><g data-paper-data="{&quot;isPaintingLayer&quot;:true}" fill-rule="nonzero" stroke-linejoin="miter" stroke-miterlimit="10" stroke-dasharray="" stroke-dashoffset="0" style="mix-blend-mode: normal"><path d="" fill="#ff6666" stroke="#ffffff" stroke-width="0.5" stroke-linecap="butt"/><path d="" fill="#ff6666" stroke="#ffffff" stroke-width="0.5" stroke-linecap="butt"/><path d="M382.5,-45.83334c0,0.27614 -0.22386,0.5 -0.5,0.5c-0.27614,0 -0.5,-0.22386 -0.5,-0.5c0,-0.27614 0.22386,-0.5 0.5,-0.5c0.27614,0 0.5,0.22386 0.5,0.5z" fill="#ffffff" stroke="#ffffff" stroke-width="0.5" stroke-linecap="butt"/><path d="M360.5,-17.33335c0,0.55229 -0.67158,1 -1.5,1c-0.82842,0 -1.5,-0.44771 -1.5,-1c0,-0.55229 0.67158,-1 1.5,-1c0.82842,0 1.5,0.44771 1.5,1z" fill="#ffffff" stroke="#ffffff" stroke-width="0.5" stroke-linecap="butt"/><path d="" fill="#ff0000" stroke="#000000" stroke-width="5" stroke-linecap="butt"/><g stroke="#000000" stroke-width="3.5"><path d="M239.5871,185.72905c-5.39656,0 -11.89325,-1.94788 -16.45331,-6.44401c2.47367,0.02697 4.93931,0.06854 7.36621,0.24831c2.99421,0.22179 5.79241,3.96168 8.99312,2.44573c4.78306,-2.26539 10.58846,-1.87717 15.88616,-1.93318c-4.74174,3.83406 -10.65808,5.68316 -15.79218,5.68316z" fill="#ff0000" stroke-linecap="butt"/><path d="M226.51613,182.45162l20.83871,9.80645l2.45161,-8.58064l-23.29032,11.03225z" fill="#ff6666" stroke-linecap="round"/><path d="M238.7742,188.58065c0,0 9.54486,14.89512 4.4298,17.10136c-5.05553,2.18057 -9.46534,3.0793 -10.74393,9.83133c-0.52884,2.79276 -0.32981,5.80241 -0.65057,8.65949c-0.76931,6.8524 0.83567,12.82717 0.83567,12.82717" fill="none" stroke-linecap="round"/></g><path d="M241.7,153.23333c0,2.83749 -2.70016,4.03905 -3.49036,6.06475c-1.0093,2.58737 -0.29179,5.63525 -1.80964,5.63525c-0.62254,0 -7.41687,-4.14071 -7.65504,-4.74403c-0.79717,-2.01935 6.95504,-3.1807 6.95504,-8.15597c0,-6.46173 -1.6062,-10.5 1.1,-10.5c2.7062,0 4.9,5.23827 4.9,11.7z" fill="#ff0000" stroke="#000000" stroke-width="3.5" stroke-linecap="butt"/><path d="M206.62725,156.53865c2.4697,-2.60531 1.14164,3.9758 4.86923,7.50937c3.72759,3.53357 11.09928,2.6815 8.62958,5.28681c-2.4697,2.60531 -7.49359,1.8528 -11.22119,-1.68077c-3.72759,-3.53357 -4.74732,-8.51011 -2.27762,-11.11541z" fill="#ff0000" stroke="#000000" stroke-width="3.5" stroke-linecap="butt"/><path d="M230.9,121.83334c0,0.49706 8.66924,5.5 1.6,5.5c-7.06924,0 -10.4,-6.60294 -10.4,-7.1c0,-0.49706 5.93076,-3.9 13,-3.9c7.06924,0 -4.2,5.00294 -4.2,5.5z" fill="#ff0000" stroke="#000000" stroke-width="3.5" stroke-linecap="butt"/><path d="M219.3,142.43334c0,5.46762 -1.78792,2.3 -3.5,2.3c-1.71208,0 -2.7,3.16762 -2.7,-2.3c0,-5.46762 1.38792,-9.9 3.1,-9.9c1.71208,0 3.1,4.43238 3.1,9.9z" fill="#ff0000" stroke="#000000" stroke-width="3.5" stroke-linecap="butt"/><path d="M273.65742,164.655c-2.87381,6.45875 -17.6436,10.31858 -19.81334,9.35316c-2.16973,-0.96542 12.06706,-5.71912 14.94087,-12.17787c2.87381,-6.45875 3.97757,-11.58336 6.14731,-10.61794c2.16974,0.96542 1.59897,6.9839 -1.27484,13.44265z" fill="#ff0000" stroke="#000000" stroke-width="3.5" stroke-linecap="butt"/><path d="M262.3,142.83333c0,4.03168 -4.01177,4.1 -6,4.1c-1.98823,0 -3.6,-3.26832 -3.6,-7.3c0,-4.03168 1.61177,-7.3 3.6,-7.3c1.98823,0 6,6.46832 6,10.5z" fill="#ff0000" stroke="#000000" stroke-width="3.5" stroke-linecap="butt"/><text transform="translate(176.5,245.93333) scale(0.5,0.5)" font-size="40" xml:space="preserve" fill="#000000" fill-rule="nonzero" stroke="none" stroke-width="1" stroke-linecap="butt" stroke-linejoin="miter" stroke-miterlimit="10" stroke-dasharray="" stroke-dashoffset="0" font-family="Sans Serif" font-weight="normal" text-anchor="start" style="mix-blend-mode: normal"><tspan x="0" dy="0">Reset Board</tspan><tspan x="0" dy="46.15px">         -50</tspan></text></g></g></svg>