<svg version="1.1" xmlns="http://www.w3.org/2000/svg" xmlns:xlink="http://www.w3.org/1999/xlink" width="206.5" height="321.84479" viewBox="0,0,206.5,321.84479"><g transform="translate(-176.25,46.58334)"><g data-paper-data="{&quot;isPaintingLayer&quot;:true}" fill-rule="nonzero" stroke-linejoin="miter" stroke-miterlimit="10" stroke-dasharray="" stroke-dashoffset="0" style="mix-blend-mode: normal"><path d="" fill="#ff6666" stroke="#ffffff" stroke-width="0.5" stroke-linecap="butt"/><path d="" fill="#ff6666" stroke="#ffffff" stroke-width="0.5" stroke-linecap="butt"/><path d="M382.5,-45.83334c0,0.27614 -0.22386,0.5 -0.5,0.5c-0.27614,0 -0.5,-0.22386 -0.5,-0.5c0,-0.27614 0.22386,-0.5 0.5,-0.5c0.27614,0 0.5,0.22386 0.5,0.5z" fill="#ffffff" stroke="#ffffff" stroke-width="0.5" stroke-linecap="butt"/><path d="M360.5,-17.33335c0,0.55229 -0.67158,1 -1.5,1c-0.82842,0 -1.5,-0.44771 -1.5,-1c0,-0.55229 0.67158,-1 1.5,-1c0.82842,0 1.5,0.44771 1.5,1z" fill="#ffffff" stroke="#ffffff" stroke-width="0.5" stroke-linecap="butt"/><path d="" fill="#ff0000" stroke="#000000" stroke-width="5" stroke-linecap="butt"/><g stroke="#000000" stroke-width="3.5"><path d="M266.51613,146.19678c0,5.98823 -1.0325,18.22007 -4.85797,26.0179c-4.49986,9.17252 -14.20385,13.51435 -22.07106,13.51435c-6.9362,0 -15.68983,-3.2179 -19.81284,-10.92847c-4.52897,-8.46978 -5.69038,-21.38197 -5.69038,-28.20378c0,-13.03214 10.94785,-23.99678 25.50322,-23.99678c5.64674,0 17.24274,3.26023 19.9143,9.18371c1.77586,3.93752 -2.9591,9.60997 -6.67138,14.25456c1.55691,2.39947 9.22396,-8.80856 11.81122,-7.76622c1.33421,0.53752 1.87489,6.35436 1.87489,7.92473z" fill="#ff0000" stroke-linecap="butt"/><path d="M226.51613,182.45162l20.83871,9.80645l2.45161,-8.58064l-23.29032,11.03225z" fill="#ff6666" stroke-linecap="round"/><path d="M238.7742,188.58065c0,0 9.54486,14.89512 4.4298,17.10136c-5.05553,2.18057 -9.46534,3.0793 -10.74393,9.83133c-0.52884,2.79276 -0.32981,5.80241 -0.65057,8.65949c-0.76931,6.8524 0.83567,12.82717 0.83567,12.82717" fill="none" stroke-linecap="round"/></g><path d="M231.9,163.33333c0,0 2.58992,-6.61172 6.00326,-6.51419c1.17451,0.03356 5.43941,-2.03176 6.60885,-1.05976c2.39393,1.98974 1.38789,7.77395 1.38789,7.77395" fill="none" stroke="#000000" stroke-width="2" stroke-linecap="round"/><path d="M240.9,152.33335c0,0 -3.73531,-5.22365 -3.98046,-6.97474c-0.21842,-1.56015 8.58046,-7.82526 8.58046,-7.82526" fill="none" stroke="#000000" stroke-width="2" stroke-linecap="round"/><path d="M228.3,136.73333c0,0 7.27502,7.06575 7.52878,8.81036c0.27745,1.9075 -10.92878,6.98964 -10.92878,6.98964" fill="none" stroke="#000000" stroke-width="2" stroke-linecap="round"/><path d="M247.44221,160.81606c0,0 0.89755,3.33303 0.41944,4.21862c-0.46644,0.86397 -5.05398,5.63165 -5.05398,5.63165" fill="none" stroke="#000000" stroke-width="2" stroke-linecap="round"/><path d="M230.7,170.73335c0,0 -3.18736,0.8972 -3.90891,-0.06809c-0.28214,-0.37745 1.84579,-2.73387 1.63478,-2.99512c-0.62695,-0.77622 -0.32587,-4.93679 -0.32587,-4.93679" fill="none" stroke="#000000" stroke-width="2" stroke-linecap="round"/><path d="M225.9,138.13333l4.4,-5.6" fill="none" stroke="#000000" stroke-width="2" stroke-linecap="round"/><path d="M242.5,134.93334l6,2.4" fill="none" stroke="#000000" stroke-width="2" stroke-linecap="round"/><text transform="translate(176.5,245.93333) scale(0.5,0.5)" font-size="40" xml:space="preserve" fill="#000000" fill-rule="nonzero" stroke="none" stroke-width="1" stroke-linecap="butt" stroke-linejoin="miter" stroke-miterlimit="10" stroke-dasharray="" stroke-dashoffset="0" font-family="Sans Serif" font-weight="normal" text-anchor="start" style="mix-blend-mode: normal"><tspan x="0" dy="0">Reset Board</tspan><tspan x="0" dy="46.15px">         -50</tspan></text></g></g></svg>