<svg version="1.1" xmlns="http://www.w3.org/2000/svg" xmlns:xlink="http://www.w3.org/1999/xlink" width="206.5" height="321.84479" viewBox="0,0,206.5,321.84479"><g transform="translate(-176.25,46.58334)"><g data-paper-data="{&quot;isPaintingLayer&quot;:true}" fill-rule="nonzero" stroke-linejoin="miter" stroke-miterlimit="10" stroke-dasharray="" stroke-dashoffset="0" style="mix-blend-mode: normal"><path d="" fill="#ff6666" stroke="#ffffff" stroke-width="0.5" stroke-linecap="butt"/><path d="" fill="#ff6666" stroke="#ffffff" stroke-width="0.5" stroke-linecap="butt"/><path d="M382.5,-45.83334c0,0.27614 -0.22386,0.5 -0.5,0.5c-0.27614,0 -0.5,-0.22386 -0.5,-0.5c0,-0.27614 0.22386,-0.5 0.5,-0.5c0.27614,0 0.5,0.22386 0.5,0.5z" fill="#ffffff" stroke="#ffffff" stroke-width="0.5" stroke-linecap="butt"/><path d="M360.5,-17.33335c0,0.55229 -0.67158,1 -1.5,1c-0.82842,0 -1.5,-0.44771 -1.5,-1c0,-0.55229 0.67158,-1 1.5,-1c0.82842,0 1.5,0.44771 1.5,1z" fill="#ffffff" stroke="#ffffff" stroke-width="0.5" stroke-linecap="butt"/><path d="" fill="#ff0000" stroke="#000000" stroke-width="5" stroke-linecap="butt"/><g stroke="#000000" stroke-width="3.5"><path d="M264.51613,146.59678c0,13.03214 -10.57366,39.53225 -25.12903,39.53225c-14.55537,0 -23.90322,-26.50011 -23.90322,-39.53225c0,-13.03214 9.34785,-23.59678 23.90322,-23.59678c14.55537,0 25.12903,10.56464 25.12903,23.59678z" fill="#ff0000" stroke-linecap="butt"/><path d="M226.51613,182.45162l20.83871,9.80645l2.45161,-8.58064l-23.29032,11.03225z" fill="#ff6666" stroke-linecap="round"/><path d="M238.7742,188.58065c0,0 9.54486,14.89512 4.4298,17.10136c-5.05553,2.18057 -9.46534,3.0793 -10.74393,9.83133c-0.52884,2.79276 -0.32981,5.80241 -0.65057,8.65949c-0.76931,6.8524 0.83567,12.82717 0.83567,12.82717" fill="none" stroke-linecap="round"/></g><path d="M229.3,162.53334c0,0 5.18992,-5.81172 8.60326,-5.71419c3.57882,0.10225 10.59674,5.31419 10.59674,5.31419" fill="none" stroke="#000000" stroke-width="2" stroke-linecap="round"/><path d="M246.9,147.53334l-1.2,-11.8" fill="none" stroke="#000000" stroke-width="2" stroke-linecap="round"/><path d="M228.3,136.73333l1.6,11" fill="none" stroke="#000000" stroke-width="2" stroke-linecap="round"/><path d="M249.7,158.93334c0,0 1.71884,2.99337 1.4827,3.97169c-0.23038,0.95443 -2.8827,1.82831 -2.8827,1.82831" fill="none" stroke="#000000" stroke-width="2" stroke-linecap="round"/><path d="M229.9,164.93333c0,0 -3.12348,0.66617 -3.87413,-0.26321c-0.62695,-0.77622 -0.32587,-4.93679 -0.32587,-4.93679" fill="none" stroke="#000000" stroke-width="2" stroke-linecap="round"/><text transform="translate(176.5,245.93333) scale(0.5,0.5)" font-size="40" xml:space="preserve" fill="#000000" fill-rule="nonzero" stroke="none" stroke-width="1" stroke-linecap="butt" stroke-linejoin="miter" stroke-miterlimit="10" stroke-dasharray="" stroke-dashoffset="0" font-family="Sans Serif" font-weight="normal" text-anchor="start" style="mix-blend-mode: normal"><tspan x="0" dy="0">Reset Board</tspan><tspan x="0" dy="46.15px">         -50</tspan></text></g></g></svg>